<mxfile host="app.diagrams.net" modified="2020-08-03T19:07:21.680Z" agent="5.0 (X11; Linux x86_64) AppleWebKit/537.36 (KHTML, like Gecko) Chrome/84.0.4147.89 Safari/537.36" etag="9LdVT77SKcYiIPQCjo0x" version="13.5.9" type="github">
  <diagram id="MPJT4lrM8RBFGehcGzrI" name="第 1 页">
    <mxGraphModel dx="1422" dy="805" grid="1" gridSize="10" guides="1" tooltips="1" connect="1" arrows="1" fold="1" page="1" pageScale="1" pageWidth="827" pageHeight="1169" math="0" shadow="0">
      <root>
        <mxCell id="0" />
        <mxCell id="1" parent="0" />
        <mxCell id="D558ar1qQZn3TUELk2UQ-4" value="Card" style="ellipse;whiteSpace=wrap;html=1;" parent="1" vertex="1">
          <mxGeometry x="60" y="290" width="140" height="70" as="geometry" />
        </mxCell>
        <mxCell id="D558ar1qQZn3TUELk2UQ-5" value="board" style="ellipse;whiteSpace=wrap;html=1;" parent="1" vertex="1">
          <mxGeometry x="70" y="540" width="140" height="70" as="geometry" />
        </mxCell>
        <mxCell id="D558ar1qQZn3TUELk2UQ-6" value="create" style="ellipse;whiteSpace=wrap;html=1;" parent="1" vertex="1">
          <mxGeometry x="290" y="200" width="90" height="40" as="geometry" />
        </mxCell>
        <mxCell id="D558ar1qQZn3TUELk2UQ-7" value="update" style="ellipse;whiteSpace=wrap;html=1;" parent="1" vertex="1">
          <mxGeometry x="310" y="280" width="90" height="40" as="geometry" />
        </mxCell>
        <mxCell id="D558ar1qQZn3TUELk2UQ-9" value="delete" style="ellipse;whiteSpace=wrap;html=1;" parent="1" vertex="1">
          <mxGeometry x="290" y="360" width="90" height="40" as="geometry" />
        </mxCell>
        <mxCell id="D558ar1qQZn3TUELk2UQ-11" value="view" style="ellipse;whiteSpace=wrap;html=1;" parent="1" vertex="1">
          <mxGeometry x="250" y="440" width="90" height="40" as="geometry" />
        </mxCell>
        <mxCell id="D558ar1qQZn3TUELk2UQ-12" value="" style="endArrow=open;endFill=1;endSize=12;html=1;" parent="1" source="D558ar1qQZn3TUELk2UQ-9" target="D558ar1qQZn3TUELk2UQ-4" edge="1">
          <mxGeometry width="160" relative="1" as="geometry">
            <mxPoint x="330" y="410" as="sourcePoint" />
            <mxPoint x="490" y="410" as="targetPoint" />
          </mxGeometry>
        </mxCell>
        <mxCell id="D558ar1qQZn3TUELk2UQ-13" value="" style="endArrow=open;endFill=1;endSize=12;html=1;" parent="1" source="D558ar1qQZn3TUELk2UQ-11" target="D558ar1qQZn3TUELk2UQ-4" edge="1">
          <mxGeometry width="160" relative="1" as="geometry">
            <mxPoint x="330" y="410" as="sourcePoint" />
            <mxPoint x="490" y="410" as="targetPoint" />
          </mxGeometry>
        </mxCell>
        <mxCell id="D558ar1qQZn3TUELk2UQ-14" value="" style="endArrow=open;endFill=1;endSize=12;html=1;" parent="1" source="D558ar1qQZn3TUELk2UQ-7" target="D558ar1qQZn3TUELk2UQ-4" edge="1">
          <mxGeometry width="160" relative="1" as="geometry">
            <mxPoint x="330" y="410" as="sourcePoint" />
            <mxPoint x="490" y="410" as="targetPoint" />
          </mxGeometry>
        </mxCell>
        <mxCell id="D558ar1qQZn3TUELk2UQ-15" value="" style="endArrow=open;endFill=1;endSize=12;html=1;" parent="1" source="D558ar1qQZn3TUELk2UQ-6" target="D558ar1qQZn3TUELk2UQ-4" edge="1">
          <mxGeometry width="160" relative="1" as="geometry">
            <mxPoint x="330" y="410" as="sourcePoint" />
            <mxPoint x="490" y="410" as="targetPoint" />
          </mxGeometry>
        </mxCell>
        <mxCell id="zAyNHzgrzTAikybFY9Nv-2" value="viewVerify" style="html=1;" vertex="1" parent="1">
          <mxGeometry x="400" y="470" width="110" height="50" as="geometry" />
        </mxCell>
      </root>
    </mxGraphModel>
  </diagram>
</mxfile>
